<svg width="338" height="205" fill="none" xmlns="http://www.w3.org/2000/svg"><path d="M43.25 191.08l-1.047 1.704 1.047-1.704zm-30.205-34.324l-1.81.851.006.013.007.013 1.797-.877zm0-107.365l-1.802-.868-.004.01 1.806.858zM43.25 14.793l1.047 1.704-1.047-1.704zm87.594 0l-1.046 1.704 1.046-1.704zm29.931 34.598l-1.81.85.006.014.006.013 1.798-.877zm0 107.365l-1.802-.868-.004.009 1.806.859zm-29.931 34.324l1.047 1.704-1.047-1.704zm-21.967-45.857l-1.705-1.044-.007.01 1.712 1.034zm0-84.3l-1.721 1.02.012.02.013.02 1.696-1.06zm-43.934 0l-1.706-1.043-.006.01 1.712 1.034zm0 84.3l-1.721 1.019.012.021.013.02 1.696-1.06zm22.242 55.664c-16.143 0-30.419-3.851-42.888-11.511l-2.094 3.408c13.16 8.083 28.173 12.103 44.982 12.103v-4zm-42.888-11.511c-12.455-7.651-22.28-18.788-29.454-33.497l-3.595 1.754c7.47 15.313 17.782 27.059 30.955 35.151l2.094-3.408zm-29.442-33.471c-6.989-14.873-10.519-32.51-10.519-52.969h-4c0 20.913 3.609 39.156 10.899 54.671l3.62-1.702zM4.336 102.936c0-20.46 3.53-38 10.515-52.686l-3.612-1.718C3.945 63.87.336 82.024.336 102.936h4zm10.51-52.677c7.178-14.892 17.002-26.115 29.45-33.762l-2.093-3.409c-13.18 8.096-23.492 19.939-30.96 35.435l3.604 1.736zm29.45-33.762c12.47-7.66 26.746-11.512 42.889-11.512v-4c-16.809 0-31.823 4.02-44.982 12.104l2.094 3.408zm42.89-11.512c15.954 0 30.139 3.85 42.613 11.512l2.093-3.409C118.736 5.008 103.815.986 87.185.986v4zm42.613 11.512c12.444 7.644 22.173 18.861 29.167 33.745l3.62-1.701c-7.285-15.505-17.509-27.354-30.694-35.452l-2.093 3.408zm29.179 33.77c7.162 14.681 10.781 32.216 10.781 52.669h4c0-20.919-3.702-39.08-11.186-54.422l-3.595 1.754zm10.781 52.669c0 20.452-3.619 38.083-10.785 52.952l3.604 1.736c7.479-15.519 11.181-33.768 11.181-54.688h-4zm-10.789 52.961c-6.992 14.7-16.721 25.831-29.171 33.479l2.093 3.408c13.178-8.095 23.403-19.847 30.69-35.169l-3.612-1.718zm-29.171 33.479c-12.474 7.662-26.659 11.511-42.613 11.511v4c16.63 0 31.551-4.022 44.706-12.103l-2.093-3.408zm-42.613-28.972c9.95 0 17.786-4.847 23.404-14.147l-3.424-2.068c-4.999 8.275-11.624 12.215-19.98 12.215v4zm23.398-14.136c5.786-9.451 8.532-24.003 8.532-43.332h-4c0 19.114-2.746 32.753-7.943 41.243l3.411 2.089zm8.532-43.332c0-19.323-2.744-33.796-8.542-43.072l-3.392 2.12c5.186 8.298 7.934 21.833 7.934 40.952h4zm-8.517-43.03c-5.609-9.478-13.444-14.437-23.413-14.437v4c8.336 0 14.963 4.011 19.971 12.474l3.442-2.038zM87.185 45.468c-10.132 0-18.147 4.936-23.948 14.41l3.411 2.09c5.184-8.467 11.996-12.5 20.537-12.5v-4zM63.23 59.889c-5.6 9.27-8.251 23.73-8.251 43.047h4c0-19.125 2.657-32.673 7.675-40.978L63.23 59.89zm-8.251 43.047c0 19.323 2.653 33.863 8.242 43.306l3.442-2.037c-5.03-8.498-7.684-22.149-7.684-41.269h-4zm8.267 43.347c5.81 9.295 13.826 14.121 23.938 14.121v-4c-8.561 0-15.372-3.962-20.546-12.241l-3.392 2.12zm222.962-62.568l-1.465-1.362-2.417 2.601 3.477.72.405-1.96zm36.521 19.77l-1.523 1.297.013.016.013.014 1.497-1.327zm3.569 67.001l-1.683-1.08-.007.011-.007.011 1.697 1.058zM298.291 194.1l.852 1.81.011-.005-.863-1.805zm-86.771 3.845l-.485 1.94.007.001.478-1.941zm-34.323-14.005l-1.801-.87-.782 1.618 1.526.95 1.057-1.698zm19.77-40.914l1.128-1.651-1.918-1.31-1.011 2.091 1.801.87zm25.263 11.808l-.565 1.919.01.003.555-1.922zm50.25-1.098l1.07 1.689-1.07-1.689zm-43.935-33.501h-2v2h2v-2zm0-34.323l-1.467-1.36-.533.576v.784h2zm34.324-37.07l1.467 1.359 3.11-3.36h-4.577v2zm-75.787 0h-2v2h2v-2zm0-42.012v-2h-2v2h2zm138.943 0h2v-2h-2v2zm0 34.049l1.465 1.361.535-.575v-.786h-2zm-40.221 44.794c15.603 3.229 27.337 9.64 35.403 19.109l3.045-2.594c-8.775-10.301-21.388-17.07-37.638-20.432l-.81 3.917zm35.429 19.139c8.255 9.309 12.402 20.633 12.402 34.096h4c0-14.363-4.456-26.653-13.409-36.75l-2.993 2.654zm12.402 34.096c0 10.96-2.998 21.112-9.019 30.498l3.367 2.159c6.427-10.019 9.652-20.918 9.652-32.657h-4zm-9.033 30.52c-5.799 9.313-14.809 16.954-27.174 22.868l1.726 3.609c12.897-6.169 22.56-14.271 28.843-24.362l-3.395-2.115zm-27.162 22.863c-12.107 5.697-27.264 8.596-45.555 8.596v4c18.688 0 34.468-2.958 47.258-8.977l-1.703-3.619zm-45.555 8.596c-13.382 0-26.676-1.627-39.886-4.884l-.957 3.883c13.517 3.334 27.133 5.001 40.843 5.001v-4zm-39.879-4.883c-13.016-3.253-24.257-7.849-33.752-13.761l-2.114 3.395c9.908 6.17 21.55 10.911 34.895 14.247l.971-3.881zm-33.009-11.193l19.771-40.914-3.602-1.741-19.77 40.914 3.601 1.741zm16.842-40.133c7.69 5.252 16.304 9.274 25.826 12.075l1.129-3.838c-9.15-2.691-17.378-6.54-24.699-11.54l-2.256 3.303zm25.836 12.078c9.685 2.793 19.207 4.197 28.563 4.197v-4c-8.951 0-18.1-1.343-27.454-4.041l-1.109 3.844zm28.563 4.197c9.558 0 17.389-1.777 23.312-5.528l-2.14-3.379c-5.061 3.205-12.058 4.907-21.172 4.907v4zm23.312-5.528c6.06-3.838 9.167-9.413 9.167-16.517h-4c0 5.709-2.384 10.02-7.307 13.138l2.14 3.379zm9.167-16.517c0-6.849-2.749-12.183-8.272-15.692-5.37-3.413-13.168-4.981-23.109-4.981v4c9.646 0 16.539 1.545 20.963 4.356 4.271 2.715 6.418 6.717 6.418 12.317h4zm-31.381-20.673h-22.791v4h22.791v-4zm-20.791 2V85.912h-4v34.323h4zm-.532-32.965l34.323-37.07-2.935-2.717-34.323 37.07 2.935 2.717zm32.856-40.428h-75.787v4h75.787v-4zm-73.787 2V6.83h-4v42.012h4zm-2-40.012h138.943v-4H187.082v4zm136.943-2v34.049h4V6.829h-4zm.535 32.687l-39.816 42.836 2.93 2.724L327.49 42.24l-2.93-2.723z" fill="#F4F4F4" fill-opacity=".54"/></svg>