<svg width="53" height="25" fill="none" xmlns="http://www.w3.org/2000/svg"><g clip-path="url(#clip0)" fill="#646A6E"><path d="M27.75 24.183h-2.5c-.44 0-.866-.351-.948-.785l-.393-2.065c-.082-.433.208-.784.65-.784h3.885c.441 0 .732.35.65.784l-.394 2.066a1.004 1.004 0 01-.948.784zm24.923-13.647L35.92 2.342l-2.14-1.047c-.16-.079-.357-.013-.415.156-.443 1.278.155 2.729 1.436 3.355l15.045 7.36L34.8 19.523c-1.28.625-1.879 2.077-1.436 3.355.058.169.255.235.415.156l18.893-9.24a.374.374 0 00.18-.229 6.754 6.754 0 000-2.803.375.375 0 00-.18-.227zm-40.077 1.629a9.387 9.387 0 00-.961-4.148l6.565-3.21c1.28-.626 1.877-2.077 1.436-3.356-.059-.169-.255-.235-.415-.156L.327 10.535a.377.377 0 00-.18.23 6.75 6.75 0 000 2.802c.018.087.1.19.18.228l18.894 9.241c.16.078.356.013.415-.156.442-1.278-.156-2.73-1.436-3.355l-6.564-3.211c.614-1.252.96-2.66.96-4.149zM9.204 9.207a6.69 6.69 0 01.686 2.96 6.692 6.692 0 01-.685 2.959l-6.051-2.96 6.05-2.959z"/><path d="M26.5 4.04a6.594 6.594 0 00-4.25 11.633c.338.285.724.825.828 1.253l.493 2.032c.104.428.545.776.986.776h3.886c.441 0 .883-.347.986-.776l.492-2.032c.104-.428.491-.969.828-1.253A6.593 6.593 0 0026.5 4.039zm-2.248 7.305a2.455 2.455 0 110-4.91 2.455 2.455 0 010 4.91zm2.652-8.165h-.808a.242.242 0 01-.242-.243V.242c0-.134.108-.242.242-.242h.808c.134 0 .242.108.242.242v2.695a.243.243 0 01-.242.243zm-3.428.629l-.72.366a.242.242 0 01-.325-.105l-1.224-2.401a.242.242 0 01.106-.326l.72-.367a.242.242 0 01.325.106l1.224 2.401a.242.242 0 01-.106.326zm6.768.366l-.72-.366a.243.243 0 01-.106-.327l1.224-2.4a.242.242 0 01.326-.106l.72.366c.119.06.166.206.106.326L30.57 4.069a.243.243 0 01-.326.106z"/></g><defs><clipPath id="clip0"><path fill="#fff" d="M0 0h53v24.183H0z"/></clipPath></defs></svg>