<svg width="338" height="205" viewBox="0 0 338 205" fill="none" xmlns="http://www.w3.org/2000/svg">
<path d="M43.2501 191.08L42.2032 192.784L43.2501 191.08ZM13.0451 156.756L11.235 157.607L11.2412 157.62L11.2476 157.633L13.0451 156.756ZM13.0451 49.3911L11.2434 48.5228L11.239 48.5321L13.0451 49.3911ZM43.2501 14.7927L44.2969 16.4968V16.4968L43.2501 14.7927ZM130.844 14.7927L129.798 16.4968V16.4968L130.844 14.7927ZM160.775 49.3911L158.965 50.2416L158.971 50.2548L158.977 50.2679L160.775 49.3911ZM160.775 156.756L158.973 155.888L158.969 155.897L160.775 156.756ZM130.844 191.08L131.891 192.784L130.844 191.08ZM108.877 145.223L107.172 144.179L107.165 144.189L108.877 145.223ZM108.877 60.9239L107.156 61.9425L107.168 61.9634L107.181 61.9839L108.877 60.9239ZM64.9427 60.9239L63.237 59.8796L63.2309 59.8897L64.9427 60.9239ZM64.9427 145.223L63.2216 146.242L63.2339 146.263L63.2467 146.283L64.9427 145.223ZM87.1846 200.887C71.0422 200.887 56.7665 197.036 44.2969 189.376L42.2032 192.784C55.3621 200.867 70.3761 204.887 87.1846 204.887V200.887ZM44.2969 189.376C31.8415 181.725 22.0175 170.588 14.8427 155.879L11.2476 157.633C18.7175 172.946 29.0302 184.692 42.2032 192.784L44.2969 189.376ZM14.8552 155.905C7.8665 141.032 4.33608 123.395 4.33608 102.936H0.336081C0.336081 123.849 3.94502 142.092 11.235 157.607L14.8552 155.905ZM4.33608 102.936C4.33608 82.4768 7.86681 64.9353 14.8512 50.2501L11.239 48.5321C3.94471 63.8688 0.336081 82.0241 0.336081 102.936H4.33608ZM14.8468 50.2594C22.0237 35.3673 31.8478 24.1441 44.2969 16.4968L42.2032 13.0885C29.0239 21.1844 18.7113 33.0269 11.2434 48.5228L14.8468 50.2594ZM44.2969 16.4968C56.7665 8.83692 71.0422 4.98526 87.1846 4.98526V0.98526C70.3761 0.98526 55.3621 5.00521 42.2032 13.0885L44.2969 16.4968ZM87.1846 4.98526C103.139 4.98526 117.324 8.83473 129.798 16.4968L131.891 13.0885C118.736 5.0074 103.815 0.98526 87.1846 0.98526V4.98526ZM129.798 16.4968C142.242 24.1411 151.971 35.358 158.965 50.2416L162.585 48.5405C155.3 33.0362 145.076 21.1874 131.891 13.0885L129.798 16.4968ZM158.977 50.2679C166.139 64.9485 169.758 82.4834 169.758 102.936H173.758C173.758 82.0175 170.056 63.8556 162.572 48.5142L158.977 50.2679ZM169.758 102.936C169.758 123.388 166.139 141.019 158.973 155.888L162.577 157.624C170.056 142.105 173.758 123.856 173.758 102.936H169.758ZM158.969 155.897C151.977 170.597 142.248 181.728 129.798 189.376L131.891 192.784C145.069 184.689 155.294 172.937 162.581 157.615L158.969 155.897ZM129.798 189.376C117.324 197.038 103.139 200.887 87.1846 200.887V204.887C103.815 204.887 118.736 200.865 131.891 192.784L129.798 189.376ZM87.1846 160.404C97.1341 160.404 104.971 155.557 110.589 146.257L107.165 144.189C102.166 152.464 95.5411 156.404 87.1846 156.404V160.404ZM110.583 146.268C116.369 136.817 119.115 122.265 119.115 102.936H115.115C115.115 122.05 112.369 135.689 107.172 144.179L110.583 146.268ZM119.115 102.936C119.115 83.6129 116.371 69.1399 110.573 59.8639L107.181 61.9839C112.367 70.2817 115.115 83.8169 115.115 102.936H119.115ZM110.598 59.9052C104.989 50.4278 97.1542 45.4689 87.1846 45.4689V49.4689C95.521 49.4689 102.148 53.48 107.156 61.9425L110.598 59.9052ZM87.1846 45.4689C77.0535 45.4689 69.0376 50.4054 63.237 59.8796L66.6484 61.9682C71.8315 53.5025 78.6435 49.4689 87.1846 49.4689V45.4689ZM63.2309 59.8897C57.6312 69.1581 54.9796 83.6191 54.9796 102.936H58.9796C58.9796 83.8107 61.6367 70.2635 66.6546 61.9581L63.2309 59.8897ZM54.9796 102.936C54.9796 122.259 57.6332 136.799 63.2216 146.242L66.6639 144.205C61.6348 135.707 58.9796 122.056 58.9796 102.936H54.9796ZM63.2467 146.283C69.0562 155.578 77.0732 160.404 87.1846 160.404V156.404C78.6238 156.404 71.8129 152.442 66.6387 144.163L63.2467 146.283ZM286.209 83.7149L284.744 82.3533L282.327 84.954L285.804 85.6734L286.209 83.7149ZM322.73 103.485L321.207 104.782L321.22 104.798L321.233 104.812L322.73 103.485ZM326.299 170.486L324.616 169.406L324.609 169.417L324.602 169.428L326.299 170.486ZM298.291 194.1L299.143 195.91L299.154 195.905L298.291 194.1ZM211.52 197.945L211.035 199.885L211.042 199.886L211.52 197.945ZM177.197 183.94L175.396 183.07L174.614 184.688L176.14 185.638L177.197 183.94ZM196.967 143.026L198.095 141.375L196.177 140.065L195.166 142.156L196.967 143.026ZM222.23 154.834L221.665 156.753L221.675 156.756L222.23 154.834ZM272.48 153.736L273.55 155.425L272.48 153.736ZM228.545 120.235H226.545V122.235H228.545V120.235ZM228.545 85.9116L227.078 84.5528L226.545 85.1279V85.9116H228.545ZM262.869 48.8419L264.336 50.2007L267.446 46.8419H262.869V48.8419ZM187.082 48.8419H185.082V50.8419H187.082V48.8419ZM187.082 6.82953V4.82953H185.082V6.82953H187.082ZM326.025 6.82953H328.025V4.82953H326.025V6.82953ZM326.025 40.8788L327.49 42.2404L328.025 41.6647V40.8788H326.025ZM285.804 85.6734C301.407 88.9016 313.141 95.3136 321.207 104.782L324.252 102.188C315.477 91.8867 302.864 85.1184 286.614 81.7564L285.804 85.6734ZM321.233 104.812C329.488 114.121 333.635 125.445 333.635 138.908H337.635C337.635 124.545 333.179 112.255 324.226 102.158L321.233 104.812ZM333.635 138.908C333.635 149.868 330.637 160.02 324.616 169.406L327.983 171.565C334.41 161.546 337.635 150.647 337.635 138.908H333.635ZM324.602 169.428C318.803 178.741 309.793 186.382 297.428 192.296L299.154 195.905C312.051 189.736 321.714 181.634 327.997 171.543L324.602 169.428ZM297.44 192.291C285.333 197.988 270.176 200.887 251.885 200.887V204.887C270.573 204.887 286.353 201.929 299.143 195.91L297.44 192.291ZM251.885 200.887C238.503 200.887 225.209 199.26 211.999 196.003L211.042 199.886C224.559 203.22 238.175 204.887 251.885 204.887V200.887ZM212.006 196.004C198.99 192.751 187.749 188.155 178.254 182.243L176.14 185.638C186.048 191.808 197.69 196.549 211.035 199.885L212.006 196.004ZM178.997 184.811L198.768 143.897L195.166 142.156L175.396 183.07L178.997 184.811ZM195.839 144.678C203.529 149.93 212.143 153.952 221.665 156.753L222.794 152.915C213.644 150.224 205.416 146.375 198.095 141.375L195.839 144.678ZM221.675 156.756C231.36 159.549 240.882 160.953 250.238 160.953V156.953C241.287 156.953 232.138 155.61 222.784 152.912L221.675 156.756ZM250.238 160.953C259.796 160.953 267.627 159.176 273.55 155.425L271.41 152.046C266.349 155.251 259.352 156.953 250.238 156.953V160.953ZM273.55 155.425C279.61 151.587 282.717 146.012 282.717 138.908H278.717C278.717 144.617 276.333 148.928 271.41 152.046L273.55 155.425ZM282.717 138.908C282.717 132.059 279.968 126.725 274.445 123.216C269.075 119.803 261.277 118.235 251.336 118.235V122.235C260.982 122.235 267.875 123.78 272.299 126.591C276.57 129.306 278.717 133.308 278.717 138.908H282.717ZM251.336 118.235H228.545V122.235H251.336V118.235ZM230.545 120.235V85.9116H226.545V120.235H230.545ZM230.013 87.2704L264.336 50.2007L261.401 47.4831L227.078 84.5528L230.013 87.2704ZM262.869 46.8419H187.082V50.8419H262.869V46.8419ZM189.082 48.8419V6.82953H185.082V48.8419H189.082ZM187.082 8.82953H326.025V4.82953H187.082V8.82953ZM324.025 6.82953V40.8788H328.025V6.82953H324.025ZM324.56 39.5172L284.744 82.3533L287.674 85.0765L327.49 42.2404L324.56 39.5172Z" fill="#F4F4F4" fill-opacity="0.54"/>
</svg>
