<svg width="53" height="25" viewBox="0 0 53 25" fill="none" xmlns="http://www.w3.org/2000/svg">
<style>
    *{
        pointer-events: fill;
        cursor: pointer;
    }
    #lamp path {
        transition: all .5s;
    }
    svg:hover #lamp path {
        fill: rgba(255, 239, 61, 1);
        fill-opacity: 1;
        box-shadow: 0px 1px 10px rgba(247, 189, 35, 0.49);
    }
</style>
<g clip-path="url(#clip0)">
    <g id="lamp">
        <path d="M26.5002 4.03906C22.8588 4.03906 19.9063 6.99087 19.9063 10.6322C19.9063 12.6549 20.8173 14.4638 22.2505 15.6734C22.588 15.9581 22.9741 16.4976 23.0782 16.9261L23.5706 18.9578C23.6747 19.3863 24.1163 19.7342 24.5573 19.7342H28.443C28.884 19.7342 29.3263 19.387 29.4291 18.9578L29.9214 16.9261C30.0248 16.4976 30.4123 15.9574 30.7491 15.6727C32.1823 14.4638 33.0933 12.6542 33.0933 10.6315C33.0933 6.99088 30.1415 4.03906 26.5002 4.03906ZM24.2524 11.3446C22.8963 11.3446 21.7971 10.2454 21.7971 8.88931C21.7971 7.53319 22.8963 6.43398 24.2524 6.43398C25.6086 6.43398 26.7078 7.53319 26.7078 8.88931C26.7078 10.2447 25.6086 11.3446 24.2524 11.3446Z" fill="white" fill-opacity="0.46"/>
        <path d="M26.9039 3.17957H26.0963C25.9623 3.17957 25.854 3.07125 25.854 2.93723V0.242339C25.854 0.108323 25.9623 0 26.0963 0H26.9039C27.0379 0 27.1462 0.108323 27.1462 0.242339V2.93723C27.1462 3.07055 27.0379 3.17957 26.9039 3.17957Z" fill="white" fill-opacity="0.46"/>
        <path d="M23.4757 3.80868L22.7563 4.17532C22.6369 4.23573 22.4911 4.18851 22.4307 4.06977L21.2072 1.6686C21.1461 1.54917 21.194 1.40335 21.3134 1.34294L22.0328 0.976304C22.1522 0.915199 22.2981 0.963111 22.3585 1.08185L23.582 3.48302C23.6431 3.60176 23.5952 3.74758 23.4757 3.80868Z" fill="white" fill-opacity="0.46"/>
        <path d="M30.2439 4.17528L29.5245 3.80865C29.4051 3.74755 29.3579 3.60173 29.4183 3.48229L30.6418 1.08112C30.7029 0.961691 30.8487 0.914473 30.9675 0.975578L31.6875 1.34221C31.807 1.40262 31.8535 1.54844 31.7938 1.66788L30.5703 4.06904C30.5092 4.18848 30.3634 4.2357 30.2439 4.17528Z" fill="white" fill-opacity="0.46"/>
    </g>
<path d="M27.7509 24.1832H25.249C24.8081 24.1832 24.3831 23.8319 24.3012 23.3986L23.9082 21.3335C23.8256 20.9002 24.1165 20.5488 24.5574 20.5488H28.4432C28.8841 20.5488 29.1751 20.8995 29.0924 21.3335L28.6994 23.3986C28.6168 23.8312 28.1925 24.1832 27.7509 24.1832Z" fill="white" fill-opacity="0.46"/>
<path d="M52.6728 10.5358L35.9201 2.34207L33.78 1.29494C33.6196 1.21648 33.4231 1.28245 33.3648 1.45118C32.9225 2.72884 33.5203 4.1801 34.8008 4.80643L49.8459 12.1655L34.8008 19.5238C33.5203 20.1495 32.9225 21.6007 33.3648 22.8791C33.4231 23.0478 33.6196 23.1138 33.78 23.0353L52.6728 13.7945C52.7533 13.7556 52.8345 13.6535 52.8533 13.566C52.9491 13.114 52.9998 12.6453 52.9998 12.1648C52.9998 11.6843 52.9491 11.2156 52.8533 10.7635C52.8345 10.6767 52.7533 10.5746 52.6728 10.5358Z" fill="white" fill-opacity="0.46"/>
<path d="M12.5961 12.1655C12.5961 10.6768 12.2496 9.26927 11.635 8.0173L18.1997 4.80649C19.4795 4.18085 20.0773 2.72959 19.6357 1.45124C19.5774 1.2825 19.3809 1.21584 19.2205 1.295L0.327053 10.5358C0.2472 10.5747 0.165263 10.6768 0.146514 10.7643C0.0506898 11.2163 0 11.685 0 12.1655C0 12.646 0.0506898 13.1148 0.146514 13.5668C0.165263 13.6543 0.2472 13.7564 0.327053 13.7952L19.2205 23.0361C19.3809 23.1145 19.5767 23.0486 19.6357 22.8798C20.078 21.6022 19.4795 20.1509 18.1997 19.5246L11.6357 16.3138C12.2496 15.0618 12.5961 13.6543 12.5961 12.1655ZM9.20402 9.20608C9.64286 10.0991 9.89006 11.1031 9.89006 12.1655C9.89006 13.2272 9.64356 14.232 9.20471 15.125L3.15388 12.1655L9.20402 9.20608Z" fill="white" fill-opacity="0.46"/>
</g>
<defs>
<clipPath id="clip0">
<rect width="53" height="24.1832" fill="white"/>
</clipPath>
</defs>
</svg>
